<?xml version="1.0" standalone="no"?>
<!DOCTYPE svg PUBLIC "-//W3C//DTD SVG 20010904//EN"
 "http://www.w3.org/TR/2001/REC-SVG-20010904/DTD/svg10.dtd">
<svg version="1.0" xmlns="http://www.w3.org/2000/svg"
 width="687.000000pt" height="393.000000pt" viewBox="0 0 687.000000 393.000000"
 preserveAspectRatio="xMidYMid meet">

<g transform="translate(0.000000,393.000000) scale(0.100000,-0.100000)"
fill="#000000" stroke="none">
<path d="M3270 3280 c-146 -10 -447 -30 -670 -44 -223 -14 -420 -29 -438 -31
-19 -4 -39 -16 -49 -31 -14 -22 -15 -34 -5 -82 6 -32 61 -298 121 -592 60
-294 112 -554 116 -577 3 -22 14 -48 23 -56 15 -14 258 -107 565 -218 l109
-39 801 156 c750 145 803 157 825 181 14 16 22 35 20 51 -3 24 -14 28 -372
121 l-369 96 -128 480 c-160 602 -154 584 -185 596 -30 11 -32 11 -364 -11z
m364 -5 c15 -12 53 -138 158 -532 81 -306 134 -521 128 -527 -5 -5 -13 7 -19
30 -75 287 -254 957 -262 980 -5 18 -18 34 -28 37 -9 2 -67 0 -127 -4 -60 -5
-382 -27 -716 -48 -334 -22 -612 -42 -618 -46 -20 -12 -23 5 159 -865 58 -279
69 -362 46 -339 -2 3 -38 169 -79 370 -42 200 -97 467 -123 592 l-47 228 22
21 c19 20 39 23 214 34 106 7 240 16 298 20 88 6 913 59 960 62 8 1 24 -5 34
-13z m-10 -42 c22 -75 266 -1003 266 -1014 0 -11 -83 -28 -335 -68 -184 -30
-332 -57 -330 -59 2 -3 165 21 362 53 l358 58 335 -87 c184 -48 339 -91 344
-96 11 -11 1 -13 -219 -55 -189 -36 -706 -136 -1138 -221 l-228 -45 -247 91
c-293 108 -386 143 -391 147 -12 9 25 18 196 48 103 18 179 33 168 34 -11 0
-96 -12 -190 -28 -95 -16 -174 -25 -179 -20 -9 8 -245 1126 -246 1162 0 10 6
20 14 23 13 5 1302 90 1403 93 41 1 53 -3 57 -16z m1040 -1270 c-16 -22 -35
-31 -85 -41 -35 -7 -395 -77 -799 -156 l-735 -144 -50 18 c-223 78 -603 225
-617 237 -20 18 -24 53 -7 53 7 0 160 -55 341 -122 l330 -121 341 67 c188 37
554 109 812 160 262 52 474 89 479 84 6 -5 2 -19 -10 -35z"/>
<path d="M2715 3009 c-4 -11 -5 -48 -4 -82 2 -34 0 -68 -4 -74 -6 -9 -38 -13
-103 -13 l-94 0 0 -125 0 -125 135 0 135 0 0 70 0 70 280 0 280 0 0 30 c0 28
-3 30 -35 30 l-35 0 0 89 0 88 35 -4 c34 -3 35 -3 35 32 l0 35 -309 0 c-304 0
-310 0 -316 -21z"/>
<path d="M2392 2913 l3 -58 50 0 50 0 3 58 3 57 -56 0 -56 0 3 -57z"/>
<path d="M3472 2719 l3 -52 45 -1 45 -1 3 53 3 52 -51 0 -51 0 3 -51z"/>
<path d="M2968 2453 l-58 -4 0 -84 0 -84 95 -3 95 -3 0 93 0 92 -37 -2 c-21
-1 -64 -3 -95 -5z"/>
<path d="M2538 2412 c-2 -20 -1 -58 0 -84 l4 -48 74 0 74 0 0 84 0 85 -74 0
-75 0 -3 -37z"/>
<path d="M3235 2041 c-368 -59 -676 -109 -683 -112 -8 -3 53 -26 135 -52 l148
-48 665 121 c366 66 673 124 684 128 23 10 -197 73 -247 71 -17 -1 -333 -50
-702 -108z"/>
<path d="M2970 2055 c-102 -18 -174 -33 -160 -33 14 -1 111 14 215 33 105 18
177 33 160 33 -16 0 -113 -15 -215 -33z"/>
<path d="M3670 1943 c-157 -29 -287 -53 -290 -53 -3 -1 31 -12 75 -25 l79 -24
216 40 c118 22 251 48 294 57 l79 17 -84 21 -84 20 -285 -53z"/>
<path d="M2420 1882 c0 -5 18 -16 40 -25 30 -11 40 -12 40 -3 0 6 -15 17 -33
24 -40 14 -47 15 -47 4z"/>
<path d="M2550 1831 c0 -8 52 -31 71 -31 21 0 6 19 -22 29 -39 13 -49 14 -49
2z"/>
<path d="M3920 2880 l0 -90 100 0 100 0 0 90 0 90 -100 0 -100 0 0 -90z"/>
<path d="M4282 2583 l3 -58 60 0 60 0 3 58 3 57 -66 0 -66 0 3 -57z"/>
<path d="M4078 2443 c-6 -121 -11 -114 100 -111 l97 3 3 88 3 87 -100 0 -99 0
-4 -67z"/>
<path d="M160 1235 l0 -25 130 0 130 0 0 25 0 25 -130 0 -130 0 0 -25z"/>
<path d="M580 1170 l0 -90 110 0 110 0 0 25 c0 24 -2 25 -66 25 -77 0 -104 12
-104 45 0 28 20 34 135 38 63 2 70 4 70 22 0 19 -8 20 -127 23 l-128 3 0 -91z"/>
<path d="M1040 1248 c-34 -18 -50 -54 -50 -115 0 -52 0 -53 30 -53 30 0 30 1
30 55 0 56 14 75 54 75 37 0 46 -28 46 -146 l0 -114 25 0 c20 0 25 6 31 36 4
20 4 71 1 114 -3 42 -2 82 2 88 11 18 60 25 76 12 12 -10 15 -38 15 -131 l0
-119 30 0 30 0 0 126 0 126 -30 30 c-29 29 -34 30 -88 24 -66 -8 -72 -8 -132
-1 -27 4 -55 1 -70 -7z"/>
<path d="M1543 1236 c-28 -24 -28 -26 -31 -155 l-4 -131 31 0 31 0 0 120 c0
135 3 140 78 140 45 0 65 -18 60 -52 -3 -20 -10 -24 -58 -28 -47 -4 -55 -8
-55 -25 0 -17 8 -20 58 -23 l57 -3 0 -64 0 -65 30 0 30 0 0 120 c0 66 -5 130
-11 143 -16 34 -49 47 -124 47 -53 0 -69 -4 -92 -24z"/>
<path d="M1975 1248 c-36 -21 -44 -42 -45 -105 0 -61 1 -63 25 -63 23 0 25 3
25 49 0 58 13 72 73 78 69 8 77 -6 77 -143 l0 -114 25 0 25 0 0 129 c0 166 -5
174 -111 178 -45 2 -82 -1 -94 -9z"/>
<path d="M2540 1105 l0 -155 24 0 25 0 3 133 c4 170 3 177 -28 177 l-24 0 0
-155z"/>
<path d="M2803 1250 c-32 -13 -53 -61 -53 -120 0 -49 1 -50 30 -50 29 0 30 1
30 48 0 26 4 53 8 60 11 16 73 27 106 18 l26 -6 0 -125 0 -125 30 0 30 0 0
126 c0 125 0 126 -29 155 -27 26 -36 29 -93 28 -35 0 -73 -4 -85 -9z"/>
<path d="M3209 1245 c-31 -17 -49 -61 -49 -121 l0 -44 115 0 115 0 0 25 c0 24
-2 25 -69 25 -85 0 -101 6 -101 36 0 34 28 44 119 44 80 0 81 0 81 25 0 25 0
25 -92 25 -61 -1 -102 -6 -119 -15z"/>
<path d="M3609 1231 c-26 -26 -29 -36 -29 -90 0 -58 1 -61 25 -61 24 0 25 3
25 55 0 43 4 56 19 65 27 14 104 13 119 -2 7 -7 12 -44 12 -95 0 -78 -2 -84
-22 -92 -37 -13 -107 -1 -122 21 -16 23 -49 21 -54 -3 -2 -9 8 -29 21 -45 22
-25 33 -29 94 -32 120 -7 147 26 141 170 -3 84 -5 91 -31 114 -24 20 -39 24
-98 24 -65 0 -73 -2 -100 -29z"/>
<path d="M3990 1170 l0 -90 88 0 c55 0 92 -4 100 -12 7 -7 12 -36 12 -65 0
-53 0 -53 31 -53 l31 0 -6 68 c-7 72 -8 89 -4 153 2 34 -2 45 -25 65 -26 22
-37 24 -128 24 l-99 0 0 -90z m181 30 c21 -12 25 -40 7 -58 -12 -12 -95 -16
-122 -6 -16 6 -22 54 -9 67 10 11 102 8 124 -3z"/>
<path d="M4452 1250 c-29 -12 -52 -67 -52 -125 0 -43 1 -45 30 -45 30 0 30 1
30 55 0 51 2 56 27 66 19 7 35 7 50 0 22 -10 23 -15 23 -131 l0 -120 25 0 25
0 0 113 c0 61 4 117 8 123 10 16 49 26 72 19 18 -6 20 -17 22 -128 l3 -122 28
-3 27 -3 0 126 0 127 -30 30 c-28 28 -34 29 -83 24 -64 -7 -80 -8 -137 -1 -25
2 -55 0 -68 -5z"/>
<path d="M4969 1245 c-35 -19 -38 -28 -39 -132 -2 -167 -3 -163 25 -163 l25 0
0 120 c0 120 0 121 26 130 64 25 129 2 122 -44 -3 -18 -11 -21 -60 -24 -54 -3
-58 -5 -58 -27 0 -22 4 -24 58 -27 l57 -3 3 -62 c3 -59 4 -63 27 -63 l25 0 0
124 c0 68 -3 132 -6 141 -16 42 -148 61 -205 30z"/>
<path d="M5340 1235 l0 -25 130 0 130 0 0 25 0 25 -130 0 -130 0 0 -25z"/>
<path d="M5760 1104 l0 -155 28 3 27 3 3 130 c3 157 0 175 -33 175 l-25 0 0
-156z"/>
<path d="M5970 1105 l0 -156 28 3 27 3 0 150 0 150 -27 3 -28 3 0 -156z"/>
<path d="M6150 1207 c0 -62 -11 -77 -57 -77 -28 0 -33 -3 -33 -24 0 -23 4 -25
53 -28 l52 -3 3 -62 c3 -62 3 -63 32 -63 30 0 30 1 30 55 0 31 -7 69 -16 86
-11 21 -13 43 -9 70 10 60 -2 99 -31 99 -22 0 -24 -4 -24 -53z"/>
<path d="M6430 1247 c-41 -21 -50 -52 -50 -179 l0 -118 30 0 30 0 0 124 c0
138 -1 136 70 136 58 0 70 -8 70 -46 l0 -34 -55 0 c-52 0 -55 -1 -55 -25 0
-24 3 -25 55 -25 l55 0 0 -65 0 -65 30 0 30 0 0 126 c0 125 0 126 -29 155 -26
26 -36 29 -93 29 -35 0 -74 -6 -88 -13z"/>
<path d="M260 1060 l0 -110 30 0 30 0 0 110 0 110 -30 0 -30 0 0 -110z"/>
<path d="M5440 1060 l0 -110 30 0 30 0 0 110 0 110 -30 0 -30 0 0 -110z"/>
<path d="M584 1036 c-7 -19 11 -53 40 -71 18 -12 46 -15 117 -13 86 3 94 5 94
23 0 13 -7 21 -20 22 -11 1 -55 5 -97 8 -64 6 -78 10 -83 26 -7 22 -43 26 -51
5z"/>
<path d="M997 1044 c-4 -4 -7 -27 -7 -51 0 -41 1 -43 31 -43 30 0 30 1 27 48
-2 38 -7 48 -23 50 -12 2 -24 0 -28 -4z"/>
<path d="M1928 1039 c-2 -5 -2 -28 0 -50 4 -33 7 -39 28 -39 22 0 24 4 24 50
0 46 -2 50 -24 50 -13 0 -26 -5 -28 -11z"/>
<path d="M2757 1044 c-4 -4 -7 -27 -7 -51 0 -41 1 -43 31 -43 30 0 30 1 27 48
-2 38 -7 48 -23 50 -12 2 -24 0 -28 -4z"/>
<path d="M3167 1043 c-4 -3 -7 -26 -7 -50 0 -41 1 -43 30 -43 29 0 30 1 30 50
0 46 -2 50 -23 50 -13 0 -27 -3 -30 -7z"/>
<path d="M3990 1000 c0 -47 2 -50 25 -50 31 0 39 18 31 65 -6 29 -11 35 -31
35 -23 0 -25 -4 -25 -50z"/>
<path d="M4407 1044 c-4 -4 -7 -27 -7 -51 0 -41 1 -43 31 -43 30 0 30 1 27 48
-2 38 -7 48 -23 50 -12 2 -24 0 -28 -4z"/>
<path d="M945 718 c-31 -17 -35 -28 -35 -95 0 -43 5 -66 16 -77 43 -43 144
-25 144 25 0 23 -13 24 -30 4 -9 -11 -27 -15 -54 -13 l-41 3 0 60 0 60 63 3
c54 3 62 6 62 22 0 17 -7 20 -52 20 -29 0 -62 -6 -73 -12z"/>
<path d="M1215 705 c-22 -21 -25 -33 -25 -99 0 -68 10 -99 28 -82 3 4 5 35 4
69 -2 90 1 97 53 97 30 0 45 -5 49 -16 9 -24 -2 -34 -40 -34 -24 0 -34 -5 -34
-15 0 -10 10 -15 34 -15 34 0 35 -2 42 -45 10 -71 29 -49 32 38 3 71 1 79 -22
102 -34 34 -88 34 -121 0z"/>
<path d="M1474 717 c-10 -28 1 -190 14 -195 9 -3 12 22 12 102 0 66 -4 106
-10 106 -6 0 -13 -6 -16 -13z"/>
<path d="M1595 718 c-2 -7 -5 -26 -7 -43 -2 -24 -8 -31 -30 -33 -39 -5 -36
-30 5 -34 29 -3 32 -6 37 -43 3 -27 10 -40 20 -40 19 0 24 43 9 81 -6 16 -11
48 -10 70 2 40 -14 69 -24 42z"/>
<path d="M1922 714 c-17 -12 -22 -25 -22 -60 0 -32 4 -44 15 -44 11 0 15 11
15 41 l0 40 48 -3 47 -3 3 -83 c2 -60 6 -82 15 -79 13 4 22 125 13 163 -10 40
-92 58 -134 28z"/>
<path d="M2203 715 c-20 -14 -23 -25 -23 -89 0 -81 6 -92 58 -102 56 -11 121
31 92 60 -7 7 -14 4 -23 -8 -9 -13 -23 -17 -52 -14 l-40 3 -3 63 -3 62 66 0
c58 0 66 2 63 18 -5 24 -103 29 -135 7z"/>
<path d="M2500 724 c-26 -11 -40 -37 -40 -76 0 -52 28 -53 32 0 3 37 3 37 48
37 l45 0 0 -60 0 -60 -43 -3 c-31 -2 -44 1 -48 12 -7 19 -34 21 -34 3 0 -7 6
-22 14 -33 20 -27 112 -27 132 0 19 27 19 149 -1 166 -16 14 -83 22 -105 14z"/>
<path d="M2740 670 c0 -47 3 -60 15 -60 11 0 15 11 15 40 l0 40 50 0 51 0 -3
-62 -3 -63 -47 -3 c-38 -2 -48 0 -48 12 0 9 -7 16 -15 16 -11 0 -15 -11 -15
-36 l0 -36 64 4 c88 5 96 14 96 104 0 90 -14 104 -102 104 l-58 0 0 -60z"/>
<path d="M3020 625 c0 -87 3 -105 15 -105 12 0 15 18 15 105 0 87 -3 105 -15
105 -12 0 -15 -18 -15 -105z"/>
<path d="M3200 717 c-21 -10 -26 -21 -28 -60 -2 -36 0 -47 12 -47 10 0 16 12
18 38 3 37 3 37 48 37 l45 0 5 -79 c3 -51 10 -81 18 -84 9 -3 12 19 12 87 0
82 -2 91 -22 105 -27 19 -74 20 -108 3z"/>
<path d="M3485 718 c-31 -17 -35 -28 -35 -95 0 -55 3 -64 28 -83 21 -17 36
-21 67 -17 45 6 84 42 65 61 -8 8 -15 6 -24 -6 -9 -12 -27 -18 -54 -18 -47 0
-56 15 -50 86 l3 39 63 3 c54 3 62 6 62 22 0 17 -7 20 -52 20 -29 0 -62 -6
-73 -12z"/>
<path d="M4070 723 c-29 -10 -40 -37 -40 -99 0 -44 5 -67 16 -78 43 -43 144
-25 144 25 0 23 -13 24 -30 4 -9 -11 -27 -15 -54 -13 l-41 3 0 60 0 60 63 3
c54 3 62 6 62 22 0 17 -7 20 -52 19 -29 0 -60 -3 -68 -6z"/>
<path d="M4350 723 c-31 -11 -40 -37 -40 -120 0 -66 3 -83 15 -83 11 0 15 18
17 83 l3 82 45 0 c39 0 45 -3 48 -22 3 -20 -1 -23 -32 -23 -47 0 -50 -27 -3
-32 29 -3 32 -7 37 -42 3 -22 11 -41 18 -44 9 -3 12 19 12 87 0 82 -2 91 -22
105 -22 16 -68 20 -98 9z"/>
<path d="M4597 723 c-4 -3 -7 -51 -7 -105 0 -80 3 -98 15 -98 12 0 15 18 15
105 0 96 -5 117 -23 98z"/>
<path d="M4710 698 c0 -38 -15 -58 -42 -58 -33 0 -20 -29 15 -32 29 -3 32 -7
37 -42 3 -22 11 -41 19 -44 10 -3 12 7 7 49 -3 30 -7 76 -8 103 -3 57 -28 78
-28 24z"/>
<path d="M5034 705 c-23 -23 -25 -31 -22 -102 2 -61 6 -78 18 -78 12 0 16 17
18 83 l3 82 43 0 c31 0 46 -5 50 -16 9 -24 -2 -34 -40 -34 -49 0 -46 -28 4
-32 36 -3 37 -4 40 -46 5 -74 27 -45 30 41 3 71 1 79 -22 102 -17 17 -36 25
-61 25 -25 0 -44 -8 -61 -25z"/>
<path d="M5323 715 c-24 -17 -30 -58 -13 -85 5 -8 31 -17 62 -20 45 -4 53 -8
53 -25 0 -17 -8 -20 -57 -23 -50 -3 -58 -6 -58 -22 0 -17 7 -20 49 -20 121 0
141 113 21 122 -38 2 -46 7 -48 25 -3 20 2 22 50 25 39 2 53 7 53 18 0 22 -83
26 -112 5z"/>
<path d="M5580 625 c0 -81 3 -106 13 -102 8 2 12 32 12 102 0 70 -4 100 -12
103 -10 3 -13 -22 -13 -103z"/>
<path d="M5725 718 c-3 -8 -5 -55 -3 -104 2 -71 6 -89 18 -89 12 0 15 18 15
99 0 71 -4 101 -12 103 -7 3 -15 -2 -18 -9z"/>
<path d="M5845 718 c-2 -7 -5 -26 -7 -43 -2 -24 -8 -31 -30 -33 -38 -4 -37
-32 0 -32 37 0 52 -17 52 -58 0 -23 4 -32 13 -29 12 4 13 26 1 145 -5 57 -19
80 -29 50z"/>
<path d="M990 625 c0 -11 11 -15 40 -15 29 0 40 4 40 15 0 11 -11 15 -40 15
-29 0 -40 -4 -40 -15z"/>
<path d="M2260 625 c0 -11 11 -15 40 -15 29 0 40 4 40 15 0 11 -11 15 -40 15
-29 0 -40 -4 -40 -15z"/>
<path d="M3530 625 c0 -11 11 -15 40 -15 29 0 40 4 40 15 0 11 -11 15 -40 15
-29 0 -40 -4 -40 -15z"/>
<path d="M4110 625 c0 -11 11 -15 40 -15 29 0 40 4 40 15 0 11 -11 15 -40 15
-29 0 -40 -4 -40 -15z"/>
<path d="M1897 583 c-9 -14 5 -64 17 -60 15 5 14 59 -1 64 -6 2 -13 0 -16 -4z"/>
<path d="M3170 555 c0 -24 5 -35 15 -35 10 0 15 11 15 35 0 24 -5 35 -15 35
-10 0 -15 -11 -15 -35z"/>
<path d="M3734 535 c-4 -8 -3 -23 0 -32 6 -15 8 -15 16 -3 13 20 12 50 0 50
-6 0 -13 -7 -16 -15z"/>
</g>
</svg>
